<!-- <svg width="128" height="128" viewBox="0 0 128 128" fill="none" xmlns="http://www.w3.org/2000/svg">
<path fill-rule="evenodd" clip-rule="evenodd" d="M66.4117 67.8823L32 61V96C32 97.6569 33.3431 99 35 99H99C100.657 99 102 97.6569 102 96V61L67.5883 67.8823C67.2 67.96 66.8 67.96 66.4117 67.8823ZM64 73C63.4477 73 63 73.4477 63 74V76C63 76.5523 63.4477 77 64 77H70C70.5523 77 71 76.5523 71 76V74C71 73.4477 70.5523 73 70 73H64Z" fill="#A1B0FF"/>
<path fill-rule="evenodd" clip-rule="evenodd" d="M58 71C58 69.3431 59.3431 68 61 68H67C68.6569 68 70 69.3431 70 71V73C70 74.6569 68.6569 76 67 76H61C59.3431 76 58 74.6569 58 73V71ZM61 70C60.4477 70 60 70.4477 60 71V73C60 73.5523 60.4477 74 61 74H67C67.5523 74 68 73.5523 68 73V71C68 70.4477 67.5523 70 67 70H61Z" fill="black"/>
<path fill-rule="evenodd" clip-rule="evenodd" d="M54 39V36C54 33.2386 56.2386 31 59 31H69C71.7614 31 74 33.2386 74 36V39H100C103.314 39 106 41.6863 106 45V51.7208C106 54.5809 103.981 57.0434 101.177 57.6043L101 57.6396V93C101 95.7614 98.7614 98 96 98H32C29.2386 98 27 95.7614 27 93V57.6396L26.8233 57.6043C24.0188 57.0434 22 54.5809 22 51.7208V45C22 41.6863 24.6863 39 28 39H54ZM28 41C25.7909 41 24 42.7909 24 45V51.7208C24 53.6275 25.3458 55.2692 27.2155 55.6431L63.2155 62.8431C63.7334 62.9467 64.2666 62.9467 64.7845 62.8431L100.784 55.6431C102.654 55.2692 104 53.6275 104 51.7208V45C104 42.7909 102.209 41 100 41H28ZM72 36V39H56V36C56 34.3431 57.3431 33 59 33L69 33C70.6569 33 72 34.3431 72 36ZM99 58.0396L65.1767 64.8043C64.3999 64.9596 63.6001 64.9596 62.8233 64.8043L29 58.0396V93C29 94.6569 30.3431 96 32 96H96C97.6569 96 99 94.6569 99 93V58.0396Z" fill="black"/>
</svg> -->

<!-- <?xml version="1.0" encoding="utf-8"?>Uploaded to: SVG Repo, www.svgrepo.com, Generator: SVG Repo Mixer Tools -->
<svg width="800px" height="800px" viewBox="0 0 400 400" fill="none" xmlns="http://www.w3.org/2000/svg">
<path d="M105 179C93.0009 127 105.033 78.9999 151.001 64.9999M145 52.9999C286 25.9997 313.999 145 286 202" stroke="#000000" stroke-opacity="0.9" stroke-width="16" stroke-linecap="round" stroke-linejoin="round"/>
<path d="M129 150C144.866 144.478 173.622 132.155 178 112" stroke="#000000" stroke-opacity="0.9" stroke-width="14" stroke-linecap="round" stroke-linejoin="round"/>
<path d="M178 118C190.88 134.181 225.474 147.734 254 150" stroke="#000000" stroke-opacity="0.9" stroke-width="14" stroke-linecap="round" stroke-linejoin="round"/>
<path d="M123.243 175.251C115.347 176.443 112.485 182.173 112.485 191.266C112.485 197.328 117.7 202.337 128.132 206.292C139.91 300.986 261.78 300.986 269.11 198.664C278.728 191.529 283.537 186.375 283.537 183.201C283.537 177.37 281.787 173.26 272.723 169.699" stroke="#000000" stroke-opacity="0.9" stroke-width="16" stroke-linecap="round" stroke-linejoin="round"/>
<path d="M143.5 168.467C154.5 162.5 224.382 161.5 230 161.5C307.5 155 205.333 258.5 205.333 168.467" stroke="#000000" stroke-opacity="0.9" stroke-width="16" stroke-linecap="round" stroke-linejoin="round"/>
<path d="M139.394 172.57C144.854 222.57 195.455 209.938 195.455 161.75" stroke="#000000" stroke-opacity="0.9" stroke-width="16" stroke-linecap="round" stroke-linejoin="round"/>
<path d="M202.061 237.32C193.853 238.261 185.976 237.11 178.516 235.467" stroke="#000000" stroke-opacity="0.9" stroke-width="16" stroke-linecap="round" stroke-linejoin="round"/>
<path d="M67.4162 344.158C64.9063 347.794 65.8192 352.776 69.4553 355.286C73.0914 357.796 78.0738 356.883 80.5838 353.247L67.4162 344.158ZM153.61 285.619L161.397 287.455C162.055 284.663 161.168 281.733 159.072 279.774C156.976 277.816 153.992 277.129 151.251 277.975L153.61 285.619ZM242.57 285.619L240.85 277.806C237.183 278.614 234.57 281.864 234.57 285.619H242.57ZM328.071 356.998C330.279 360.825 335.172 362.137 338.998 359.929C342.825 357.721 344.137 352.828 341.929 349.002L328.071 356.998ZM80.5838 353.247C96.9197 329.582 107.203 317.543 117.384 309.936C127.435 302.425 137.859 298.852 155.969 293.264L151.251 277.975C133.375 283.491 120.373 287.729 107.807 297.119C95.3694 306.412 83.8411 320.363 67.4162 344.158L80.5838 353.247ZM244.289 293.432C249.447 292.297 256.191 293.372 264.331 297.01C272.363 300.599 280.956 306.331 289.355 313.265C306.225 327.193 321.139 344.985 328.071 356.998L341.929 349.002C333.887 335.064 317.624 315.856 299.542 300.927C290.464 293.432 280.637 286.771 270.859 282.402C261.188 278.08 250.732 275.632 240.85 277.806L244.289 293.432ZM145.824 283.783C144.034 291.373 144.402 302.822 151.74 312.55C159.289 322.559 172.865 329 193.919 329V313C176.052 313 168.083 307.648 164.513 302.915C160.732 297.901 160.405 291.659 161.397 287.455L145.824 283.783ZM193.919 329C215.077 329 229.442 322.534 238.525 313.361C247.432 304.364 250.57 293.438 250.57 285.619H234.57C234.57 289.595 232.843 296.358 227.155 302.104C221.642 307.672 211.681 313 193.919 313V329Z" fill="#000000" fill-opacity="0.9"/>
</svg>
